<?xml version="1.0" standalone="no"?>
<!DOCTYPE svg PUBLIC "-//W3C//DTD SVG 20010904//EN"
 "http://www.w3.org/TR/2001/REC-SVG-20010904/DTD/svg10.dtd">
<svg version="1.0" xmlns="http://www.w3.org/2000/svg"
 width="1000.000000pt" height="1000.000000pt" viewBox="0 0 1000.000000 1000.000000"
 preserveAspectRatio="xMidYMid meet">

<g transform="translate(0.000000,1000.000000) scale(0.100000,-0.100000)"
fill="#000000" stroke="none">
<path d="M3601 6157 c-3 -1150 -1 -1223 39 -1385 11 -42 43 -124 71 -182 46
-91 64 -116 148 -201 102 -102 184 -157 313 -208 73 -29 204 -61 253 -61 l25
0 0 324 0 324 -31 7 c-45 10 -103 67 -130 128 -23 50 -24 60 -25 322 0 149 2
410 6 580 4 171 9 408 11 527 l4 218 -335 355 c-184 195 -337 355 -340 355 -3
0 -7 -496 -9 -1103z"/>
<path d="M5327 5870 c-82 -15 -187 -50 -262 -87 -248 -125 -404 -326 -468
-608 -20 -87 -21 -120 -24 -1125 -2 -569 -2 -1098 -1 -1174 l3 -140 325 343
325 343 5 811 5 812 23 50 c40 87 96 128 189 141 200 26 351 -184 260 -362
-45 -89 -126 -139 -272 -169 -44 -9 -81 -18 -84 -21 -4 -4 -5 -109 -2 -446 l1
-168 134 0 c199 0 316 30 468 120 141 84 305 271 373 425 60 134 85 320 65
475 -28 220 -111 383 -271 535 -124 117 -245 186 -398 227 -86 22 -313 33
-394 18z"/>
<path d="M226 2321 c-3 -4 -17 -6 -30 -4 -20 4 -26 0 -31 -20 -7 -26 0 -47 14
-47 5 0 6 11 3 25 -3 18 0 25 12 25 9 0 16 -7 16 -15 0 -22 17 -18 23 6 8 29
32 18 32 -14 -1 -30 12 -36 22 -11 14 37 -41 87 -61 55z"/>
<path d="M160 2212 c0 -5 7 -17 15 -28 13 -17 14 -17 15 -1 0 14 9 17 50 17
28 0 50 5 50 10 0 6 -28 10 -65 10 -36 0 -65 -4 -65 -8z"/>
<path d="M270 2133 l0 -27 -20 22 c-29 31 -78 30 -86 -2 -6 -25 1 -46 15 -46
4 0 7 10 7 23 -1 32 34 34 64 2 32 -34 40 -32 40 15 0 22 -4 40 -10 40 -5 0
-10 -12 -10 -27z"/>
<path d="M222 2048 c-5 -7 -12 -22 -14 -33 -4 -18 -6 -17 -18 8 -16 32 -33 37
-21 5 20 -56 101 -75 116 -28 13 42 -36 80 -63 48z m43 -34 c0 -10 -8 -20 -17
-22 -18 -3 -26 27 -11 42 12 11 28 0 28 -20z"/>
<path d="M226 1941 c-3 -4 -17 -6 -30 -4 -20 4 -26 0 -31 -20 -7 -26 0 -47 14
-47 5 0 6 11 3 25 -3 18 0 25 12 25 9 0 16 -7 16 -15 0 -22 17 -18 23 6 8 29
32 18 32 -14 -1 -30 12 -36 22 -11 14 37 -41 87 -61 55z"/>
<path d="M226 1841 c-3 -4 -17 -6 -30 -4 -20 4 -26 0 -31 -20 -7 -26 0 -47 14
-47 5 0 6 11 3 25 -3 18 0 25 12 25 9 0 16 -7 16 -15 0 -22 17 -18 23 6 8 29
32 18 32 -14 -1 -30 12 -36 22 -11 14 37 -41 87 -61 55z"/>
<path d="M240 1741 c0 -5 -18 -7 -40 -5 -53 6 -54 -16 -3 -51 47 -32 63 -32
63 0 0 16 6 25 15 25 8 0 15 7 15 16 0 10 -6 14 -15 10 -8 -3 -15 -1 -15 4 0
6 -4 10 -10 10 -5 0 -10 -4 -10 -9z m-11 -30 c7 -5 12 -14 9 -21 -2 -8 -11 -5
-28 9 -17 14 -20 20 -10 21 8 0 21 -4 29 -9z"/>
<path d="M160 1611 c0 -22 5 -43 10 -46 6 -4 10 7 10 25 0 28 2 31 23 24 12
-3 34 -13 49 -20 31 -16 38 -17 38 -5 0 7 -108 61 -124 61 -3 0 -6 -18 -6 -39z"/>
<path d="M270 1523 l0 -27 -20 22 c-29 31 -78 30 -86 -2 -6 -25 1 -46 15 -46
4 0 7 10 7 23 -1 32 34 34 64 2 32 -34 40 -32 40 15 0 22 -4 40 -10 40 -5 0
-10 -12 -10 -27z"/>
<path d="M196 1451 c-4 -6 -12 -9 -17 -6 -5 4 -9 2 -9 -4 0 -5 6 -12 13 -15 9
-5 9 -7 0 -12 -10 -4 -9 -9 2 -20 8 -9 20 -12 26 -8 6 3 14 1 18 -5 5 -8 15
-9 31 -3 19 7 21 10 7 15 -23 9 -22 28 1 20 12 -4 11 0 -7 17 -17 17 -25 20
-31 10 -6 -9 -10 -8 -17 5 -7 12 -12 14 -17 6z m39 -41 c-3 -5 -10 -10 -16
-10 -5 0 -9 5 -9 10 0 6 7 10 16 10 8 0 12 -4 9 -10z"/>
<path d="M140 1280 c0 -6 38 -10 95 -10 57 0 95 4 95 10 0 6 -38 10 -95 10
-57 0 -95 -4 -95 -10z"/>
<path d="M261 1189 c-22 -18 -25 -19 -42 -3 -11 10 -22 14 -27 10 -4 -4 4 -16
17 -27 l23 -19 -46 0 c-34 0 -46 -4 -46 -15 0 -12 15 -15 75 -15 60 0 75 3 75
15 0 9 -9 15 -22 15 l-23 0 24 19 c13 10 22 23 20 29 -2 6 -14 3 -28 -9z"/>
<path d="M190 1081 c0 -27 27 -51 55 -51 24 0 45 25 45 54 0 25 -18 19 -22 -6
-2 -17 -10 -23 -28 -23 -18 0 -26 6 -28 23 -4 27 -22 30 -22 3z"/>
<path d="M206 994 c-19 -18 -20 -28 -6 -55 21 -39 90 -16 90 30 0 16 -30 41
-50 41 -10 0 -26 -7 -34 -16z m59 -29 c0 -22 -31 -33 -47 -17 -17 17 -1 44 24
40 15 -2 23 -10 23 -23z"/>
<path d="M190 900 c0 -5 -7 -10 -15 -10 -8 0 -15 -4 -15 -10 0 -5 6 -10 14
-10 8 0 17 -6 20 -12 5 -10 7 -10 12 0 3 6 21 12 40 12 34 0 56 22 39 38 -4 4
-10 1 -12 -5 -5 -15 -63 -18 -63 -3 0 6 -4 10 -10 10 -5 0 -10 -4 -10 -10z"/>
<path d="M212 810 c-19 -34 -35 -34 -40 -2 -5 30 -22 28 -22 -2 0 -50 54 -61
77 -16 17 34 38 32 38 -3 -1 -32 18 -31 23 2 8 53 -49 69 -76 21z"/>
<path d="M200 675 c-22 -26 3 -65 40 -65 35 0 58 36 45 67 -7 16 -9 15 -13 -7
-6 -40 -22 -48 -22 -12 0 25 -4 32 -19 32 -10 0 -24 -7 -31 -15z m30 -26 c0
-11 -4 -17 -10 -14 -5 3 -10 13 -10 21 0 8 5 14 10 14 6 0 10 -9 10 -21z"/>
<path d="M197 561 c-8 -22 -18 -31 -34 -31 -14 0 -23 -6 -23 -15 0 -23 138
-22 147 2 10 26 -19 68 -50 71 -24 3 -30 -2 -40 -27z m57 3 c28 -11 18 -34
-14 -34 -18 0 -30 5 -30 13 0 25 15 32 44 21z"/>
<path d="M206 464 c-19 -18 -20 -28 -6 -55 21 -39 90 -16 90 30 0 16 -30 41
-50 41 -10 0 -26 -7 -34 -16z m59 -29 c0 -22 -31 -33 -47 -17 -17 17 -1 44 24
40 15 -2 23 -10 23 -23z"/>
<path d="M140 350 c0 -5 11 -10 25 -10 15 0 25 -6 25 -14 0 -45 73 -62 92 -22
20 45 6 56 -72 56 -40 0 -70 -4 -70 -10z m128 -27 c-2 -12 -12 -18 -28 -18
-16 0 -26 6 -28 18 -3 13 3 17 28 17 25 0 31 -4 28 -17z"/>
<path d="M220 246 c-36 -13 -66 -29 -68 -37 -1 -9 20 -21 68 -35 38 -12 70
-17 70 -12 0 6 -9 12 -20 15 -14 4 -20 14 -20 34 0 22 5 29 20 29 11 0 20 7
20 15 0 8 -1 15 -2 14 -2 0 -32 -11 -68 -23z m8 -51 c-7 -7 -48 7 -48 15 0 15
45 16 48 2 2 -8 2 -15 0 -17z"/>
</g>
</svg>
