<?xml version="1.0" standalone="no"?>
<!DOCTYPE svg PUBLIC "-//W3C//DTD SVG 20010904//EN"
 "http://www.w3.org/TR/2001/REC-SVG-20010904/DTD/svg10.dtd">
<svg version="1.0" xmlns="http://www.w3.org/2000/svg"
 width="225.000000pt" height="225.000000pt" viewBox="0 0 225.000000 225.000000"
 preserveAspectRatio="xMidYMid meet">

<g transform="translate(0.000000,225.000000) scale(0.100000,-0.100000)"
fill="#000000" stroke="none">
<path d="M772 2116 c-73 -12 -136 -26 -141 -32 -14 -15 -282 -1157 -292 -1240
-13 -115 6 -195 62 -259 56 -63 169 -105 285 -105 l42 0 31 125 c17 68 31 126
31 128 0 3 -18 7 -41 11 -57 9 -99 52 -99 102 0 21 68 317 150 659 83 342 150
624 150 628 0 10 -30 7 -178 -17z"/>
<path d="M1302 1629 c-78 -9 -253 -47 -264 -58 -4 -3 -84 -328 -178 -721 -94
-393 -173 -721 -175 -728 -3 -9 31 -12 153 -12 l157 0 45 188 46 187 109 -3
c222 -7 381 52 520 192 120 121 176 242 194 423 20 193 -32 358 -139 443 -109
86 -254 114 -468 89z m236 -292 c44 -40 62 -94 62 -188 0 -193 -90 -340 -242
-395 -43 -16 -192 -24 -204 -11 -6 6 133 606 143 617 9 10 129 15 172 8 25 -5
56 -18 69 -31z"/>
</g>
</svg>
