<?xml version="1.0" standalone="no"?>
<!DOCTYPE svg PUBLIC "-//W3C//DTD SVG 20010904//EN"
 "http://www.w3.org/TR/2001/REC-SVG-20010904/DTD/svg10.dtd">
<svg version="1.0" xmlns="http://www.w3.org/2000/svg"
 width="787.000000pt" height="875.000000pt" viewBox="0 0 787.000000 875.000000"
 preserveAspectRatio="xMidYMid meet">

<g transform="translate(0.000000,875.000000) scale(0.100000,-0.100000)"
fill="#000000" stroke="none">
<path d="M2919 7686 c-3 -3 -95 -8 -205 -11 -491 -12 -629 -17 -636 -23 -3 -4
-36 -97 -72 -207 -37 -110 -71 -213 -77 -230 -6 -16 -22 -64 -36 -105 -14 -41
-29 -83 -34 -92 -5 -10 -9 -26 -9 -37 0 -10 -9 -40 -19 -67 -19 -46 -63 -184
-81 -249 -32 -117 -53 -181 -61 -189 -5 -6 -9 -24 -9 -41 0 -17 -5 -36 -11
-42 -6 -6 -17 -37 -24 -70 -8 -32 -21 -79 -29 -105 -9 -27 -23 -69 -32 -95 -8
-27 -20 -68 -25 -93 -6 -25 -14 -54 -18 -65 -5 -11 -14 -38 -19 -60 -18 -66
-52 -186 -72 -255 -10 -36 -23 -83 -29 -105 -6 -22 -20 -74 -32 -115 -36 -131
-70 -264 -81 -310 -5 -25 -18 -74 -28 -110 -43 -155 -71 -268 -77 -313 -3 -26
-10 -50 -14 -53 -5 -3 -9 -15 -9 -27 0 -12 -11 -62 -24 -112 -23 -84 -33 -127
-72 -310 -8 -38 -17 -81 -20 -95 -3 -14 -9 -34 -14 -45 -5 -11 -11 -36 -14
-55 -8 -57 -36 -181 -53 -238 -8 -30 -19 -79 -24 -110 -10 -74 -18 -112 -29
-137 -5 -11 -10 -33 -13 -50 -9 -70 -60 -311 -68 -327 -5 -10 -12 -43 -15 -74
l-7 -56 204 5 c113 3 211 8 219 11 8 3 60 8 115 11 55 3 127 8 160 10 209 14
263 18 290 21 90 9 200 19 315 28 47 4 119 11 160 16 41 5 102 12 135 16 71 7
279 33 315 39 14 3 57 8 95 11 39 4 78 10 89 14 17 6 48 79 81 190 15 49 32
99 50 145 7 17 27 77 45 135 18 58 36 114 40 125 5 11 23 67 40 125 29 94 56
174 81 237 14 38 19 38 -221 -3 -52 -9 -135 -21 -185 -26 -49 -5 -101 -11
-115 -13 -26 -4 -112 -13 -195 -20 -27 -3 -157 -7 -287 -11 l-238 -6 0 41 c0
23 8 67 19 99 10 31 21 79 25 106 3 27 10 54 15 60 5 6 12 27 15 46 11 56 26
121 41 175 22 79 51 196 95 385 23 96 45 189 50 205 4 17 18 68 30 115 12 47
26 92 30 101 5 9 12 34 15 55 4 22 15 63 26 92 10 29 19 62 19 74 0 11 9 48
20 82 10 33 27 88 36 121 9 33 19 67 22 75 3 8 13 44 23 80 9 36 25 90 34 120
9 30 25 85 35 122 10 37 23 75 28 85 5 10 15 45 22 78 7 33 17 65 21 70 3 6
10 26 13 45 4 19 11 44 16 55 5 11 16 47 25 80 9 33 23 76 30 95 7 19 16 50
19 68 3 19 12 48 20 65 8 18 17 47 20 65 3 19 12 48 20 65 8 18 22 59 31 92 8
33 20 69 24 80 5 11 23 67 41 125 18 58 49 157 70 220 21 63 40 128 42 144 3
28 1 29 -42 33 -25 2 -48 2 -51 -1z"/>
<path d="M4478 5395 c-2 -2 -40 -7 -83 -9 -122 -8 -225 -16 -275 -21 -25 -3
-76 -7 -115 -10 -110 -9 -141 -13 -293 -40 -157 -27 -217 -42 -231 -59 -5 -6
-12 -40 -16 -76 -7 -66 -13 -124 -19 -170 -5 -32 -15 -128 -21 -205 -6 -70
-13 -126 -20 -175 -5 -34 -11 -84 -20 -163 -6 -49 9 -55 83 -33 56 16 169 36
206 36 14 0 17 -6 14 -27 -7 -39 -48 -182 -63 -218 -7 -16 -16 -46 -20 -65 -3
-19 -12 -48 -20 -65 -7 -16 -19 -50 -25 -75 -7 -25 -18 -58 -25 -75 -8 -16
-17 -48 -21 -69 -4 -22 -13 -51 -20 -65 -8 -14 -14 -32 -14 -38 0 -7 -11 -45
-24 -85 -13 -40 -36 -113 -50 -163 -15 -49 -34 -106 -41 -125 -8 -19 -17 -51
-21 -70 -3 -19 -13 -47 -21 -63 -7 -15 -18 -46 -23 -70 -4 -23 -16 -64 -25
-92 -10 -27 -22 -66 -27 -85 -5 -19 -13 -44 -18 -55 -17 -41 -51 -151 -60
-194 -6 -24 -17 -57 -25 -73 -8 -17 -17 -46 -21 -66 -4 -19 -13 -47 -20 -61
-8 -14 -14 -36 -14 -48 0 -21 -22 -89 -39 -123 -4 -8 -14 -40 -21 -70 -7 -30
-16 -59 -20 -65 -4 -5 -11 -26 -15 -45 -4 -19 -33 -114 -65 -210 -31 -96 -78
-245 -104 -330 -26 -85 -57 -186 -70 -225 -30 -91 -58 -182 -86 -275 -13 -41
-26 -82 -30 -90 -4 -9 -11 -31 -14 -50 -4 -19 -11 -44 -16 -55 -21 -51 -96
-296 -91 -299 3 -2 35 0 71 5 36 4 110 10 165 14 121 7 236 17 350 30 22 3 85
8 140 11 111 7 145 16 145 39 0 8 4 23 9 33 6 9 22 58 37 107 14 50 37 122 50
162 13 39 24 80 24 90 0 10 7 31 15 47 9 16 20 46 25 65 5 20 13 52 19 71 5
19 17 62 26 95 9 33 21 64 26 70 5 5 9 21 9 35 0 14 4 30 8 35 9 11 14 25 67
215 19 69 39 134 44 145 5 11 17 48 28 82 16 54 21 63 43 64 14 1 30 3 35 4
220 36 450 86 487 106 10 5 52 18 95 29 43 12 87 27 99 35 12 7 38 17 58 20
20 4 39 11 42 16 3 5 12 9 20 9 8 0 45 14 82 31 37 17 81 37 97 44 53 23 219
104 270 133 99 55 120 67 130 75 33 24 87 57 95 57 5 0 15 6 22 13 7 7 59 46
116 85 57 40 115 84 130 97 15 14 32 25 39 25 7 0 13 4 13 8 0 4 21 24 48 44
78 60 371 357 412 418 35 53 105 145 112 148 5 2 8 10 8 17 0 8 6 20 13 27 17
17 77 116 77 127 0 4 9 16 20 26 11 10 20 21 20 26 0 6 77 178 98 219 4 8 25
69 46 135 22 66 42 127 47 136 4 9 15 56 24 105 30 157 18 378 -25 469 -5 11
-14 31 -20 45 -37 87 -126 187 -231 261 -19 13 -36 26 -39 29 -3 3 -40 23 -82
44 -43 21 -80 42 -84 47 -3 5 -12 9 -20 9 -9 0 -40 11 -70 25 -30 14 -61 25
-69 25 -8 0 -77 16 -152 36 -76 20 -178 40 -228 45 -95 9 -141 14 -215 25 -25
4 -61 9 -80 11 -49 6 -777 13 -782 8z m567 -875 c83 -10 147 -25 177 -41 10
-5 23 -9 30 -9 34 0 123 -55 176 -108 78 -78 106 -157 99 -278 -7 -102 -15
-152 -33 -191 -8 -17 -14 -37 -14 -45 0 -19 -76 -165 -95 -185 -8 -8 -15 -21
-15 -29 0 -8 -4 -14 -10 -14 -5 0 -10 -5 -10 -10 0 -19 -129 -156 -223 -238
-106 -92 -440 -282 -496 -282 -11 0 -22 -4 -25 -9 -3 -4 -38 -18 -78 -31 -40
-12 -98 -30 -128 -40 -129 -41 -164 -50 -199 -50 -20 -1 -54 -7 -76 -15 -63
-23 -68 -21 -62 24 2 21 12 53 21 72 8 19 22 59 30 90 8 31 19 65 25 75 15 29
42 115 48 154 2 19 13 53 23 75 10 22 28 76 40 120 12 44 25 87 30 95 4 8 19
58 34 110 15 52 32 99 37 104 5 6 9 22 9 37 0 15 4 30 8 33 5 3 15 31 22 62 8
32 22 74 32 93 10 19 18 44 18 54 0 25 30 116 41 123 22 13 7 42 -31 59 -22
10 -40 21 -40 25 0 3 -18 14 -40 24 -22 10 -46 23 -53 29 -16 16 -87 57 -109
64 -10 3 -18 9 -18 13 0 12 28 32 37 27 4 -2 85 1 178 8 221 15 539 17 640 5z"/>
</g>
</svg>
