<?xml version="1.0" standalone="no"?>
<!DOCTYPE svg PUBLIC "-//W3C//DTD SVG 20010904//EN"
 "http://www.w3.org/TR/2001/REC-SVG-20010904/DTD/svg10.dtd">
<svg version="1.0" xmlns="http://www.w3.org/2000/svg"
 width="192.000000pt" height="212.000000pt" viewBox="0 0 192.000000 212.000000"
 preserveAspectRatio="xMidYMid meet">

<g transform="translate(0.000000,212.000000) scale(0.100000,-0.100000)"
fill="#000000" stroke="none">
<path d="M618 2056 c-76 -12 -142 -26 -147 -31 -13 -15 -281 -1150 -291 -1234
-19 -166 25 -267 140 -326 50 -25 140 -45 206 -45 l42 0 31 125 c17 68 31 126
31 128 0 3 -18 7 -41 11 -57 9 -99 52 -99 101 0 33 70 335 241 1034 32 134 59
247 59 252 0 12 -12 11 -172 -15z"/>
<path d="M1149 1569 c-80 -8 -259 -46 -271 -58 -5 -5 -137 -544 -326 -1338
l-29 -123 158 0 159 0 0 24 c0 12 53 241 119 507 65 266 131 537 147 602 33
136 26 131 158 126 73 -4 88 -7 112 -29 46 -43 64 -95 64 -191 0 -241 -136
-402 -349 -413 l-65 -3 -28 -109 c-41 -162 -50 -148 100 -141 136 6 201 21
292 67 129 66 229 166 290 295 53 111 72 196 71 324 0 220 -73 353 -236 427
-90 41 -198 51 -366 33z"/>
</g>
</svg>
